<svg width="127" height="198" viewBox="0 0 127 198" fill="none" xmlns="http://www.w3.org/2000/svg">
<g style="mix-blend-mode:difference">
<path d="M71.5 180.5C77.7294 180.5 76.2217 179.515 71.2926 178.311M39.5 174C34.813 174 31 170.187 31 165.5M39.5 149C45.677 149 51.301 146.601 55.5 142.69C59.699 146.601 65.323 149 71.5 149C77.677 149 83.301 146.601 87.5 142.69C91.699 146.601 97.323 149 103.5 149M112 165.5C112 170.187 108.187 174 103.5 174M71.2929 180.955L71.3916 181H71.5C73.1324 181 74.2727 180.933 74.9697 180.803C75.296 180.742 75.6185 180.652 75.8318 180.482C75.9522 180.386 76.0881 180.223 76.1038 179.987C76.1188 179.761 76.0142 179.586 75.9256 179.48C75.7595 179.281 75.486 179.126 75.2136 178.998C74.9206 178.86 74.5479 178.719 74.1124 178.575C73.5415 178.387 72.8449 178.189 72.046 177.984C72.2845 177.893 72.547 177.802 72.8329 177.711C73.7156 177.432 74.7922 177.165 76.0198 176.913C78.4748 176.41 81.5056 175.973 84.7411 175.615C91.2123 174.899 98.4664 174.5 103.5 174.5C108.463 174.5 112.5 170.463 112.5 165.5V147.403V146.672L111.819 146.937C109.237 147.942 106.433 148.5 103.5 148.5C97.4551 148.5 91.9514 146.153 87.8408 142.324L87.5 142.007L87.1592 142.324C83.0486 146.153 77.5449 148.5 71.5 148.5C65.4551 148.5 59.9514 146.153 55.8408 142.324L55.5 142.007L55.1592 142.324C51.0486 146.153 45.5449 148.5 39.5 148.5C36.5669 148.5 33.7633 147.942 31.1814 146.937L30.5 146.672V147.403V165.5C30.5 170.463 34.5369 174.5 39.5 174.5C46.8525 174.5 61.4228 176.614 69.5847 178.428C69.5823 178.432 69.5799 178.436 69.5776 178.44C69.4024 178.737 69.3459 179.079 69.4614 179.428C69.5691 179.753 69.808 180.029 70.1052 180.265C70.4065 180.504 70.8046 180.733 71.2929 180.955ZM72.5307 176.758C71.7131 177.017 71.0158 177.299 70.4942 177.608C62.4448 175.752 47.1655 173.5 39.5 173.5C35.0891 173.5 31.5 169.911 31.5 165.5V148.122C34.0035 149.011 36.6953 149.5 39.5 149.5C45.6434 149.5 51.2513 147.176 55.5 143.367C59.7487 147.176 65.3566 149.5 71.5 149.5C77.6434 149.5 83.2513 147.176 87.5 143.367C91.7487 147.176 97.3566 149.5 103.5 149.5C106.305 149.5 108.996 149.011 111.5 148.122V165.5C111.5 169.911 107.911 173.5 103.5 173.5C98.4257 173.5 91.1346 173.902 84.6311 174.621C81.3793 174.981 78.3153 175.422 75.819 175.933C74.5711 176.189 73.458 176.464 72.5307 176.758ZM70.4395 178.947C70.481 178.876 70.559 178.786 70.6909 178.681C71.9567 178.98 73.0128 179.266 73.7992 179.525C74.1437 179.639 74.4295 179.745 74.6549 179.843C74.0527 179.939 73.064 179.997 71.6098 180C71.2139 179.814 70.926 179.64 70.7275 179.482C70.5091 179.308 70.4333 179.182 70.4107 179.114C70.3959 179.069 70.3933 179.025 70.4395 178.947ZM71.5 196.21C71.262 195.91 70.9546 195.636 70.6124 195.385C69.8044 194.795 68.6721 194.243 67.3391 193.728C64.6671 192.697 61.0751 191.774 57.3593 191.003C49.9348 189.462 41.8951 188.5 39.5 188.5C26.8181 188.5 16.5 178.182 16.5 165.5V75.5C16.5 71.6341 19.6341 68.5 23.5 68.5C27.3659 68.5 30.5 71.6341 30.5 75.5V125.5C30.5 130.463 34.5369 134.5 39.5 134.5C44.4631 134.5 48.5 130.463 48.5 125.5V35.5C48.5 31.6341 51.6341 28.5 55.5 28.5C59.3659 28.5 62.5 31.6341 62.5 35.5V125.5C62.5 130.463 66.5369 134.5 71.5 134.5C76.4631 134.5 80.5 130.463 80.5 125.5V75.5C80.5 71.6341 83.6341 68.5 87.5 68.5C91.3659 68.5 94.5 71.6341 94.5 75.5V125.5C94.5 130.463 98.5369 134.5 103.5 134.5C108.463 134.5 112.5 130.463 112.5 125.5V55.5C112.5 51.6341 115.634 48.5 119.5 48.5C123.366 48.5 126.5 51.6341 126.5 55.5V165.5C126.5 178.182 116.182 188.5 103.5 188.5C101.105 188.5 93.0652 189.462 85.6407 191.003C81.9249 191.774 78.3329 192.697 75.6609 193.728C74.3279 194.243 73.1956 194.795 72.3876 195.385C72.0454 195.636 71.738 195.91 71.5 196.21Z" fill="white"/>
<path d="M71.5 180.5C77.7294 180.5 76.2217 179.515 71.2926 178.311M39.5 174C34.813 174 31 170.187 31 165.5M39.5 149C45.677 149 51.301 146.601 55.5 142.69C59.699 146.601 65.323 149 71.5 149C77.677 149 83.301 146.601 87.5 142.69C91.699 146.601 97.323 149 103.5 149M112 165.5C112 170.187 108.187 174 103.5 174M71.2929 180.955L71.3916 181H71.5C73.1324 181 74.2727 180.933 74.9697 180.803C75.296 180.742 75.6185 180.652 75.8318 180.482C75.9522 180.386 76.0881 180.223 76.1038 179.987C76.1188 179.761 76.0142 179.586 75.9256 179.48C75.7595 179.281 75.486 179.126 75.2136 178.998C74.9206 178.86 74.5479 178.719 74.1124 178.575C73.5415 178.387 72.8449 178.189 72.046 177.984C72.2845 177.893 72.547 177.802 72.8329 177.711C73.7156 177.432 74.7922 177.165 76.0198 176.913C78.4748 176.41 81.5056 175.973 84.7411 175.615C91.2123 174.899 98.4664 174.5 103.5 174.5C108.463 174.5 112.5 170.463 112.5 165.5V147.403V146.672L111.819 146.937C109.237 147.942 106.433 148.5 103.5 148.5C97.4551 148.5 91.9514 146.153 87.8408 142.324L87.5 142.007L87.1592 142.324C83.0486 146.153 77.5449 148.5 71.5 148.5C65.4551 148.5 59.9514 146.153 55.8408 142.324L55.5 142.007L55.1592 142.324C51.0486 146.153 45.5449 148.5 39.5 148.5C36.5669 148.5 33.7633 147.942 31.1814 146.937L30.5 146.672V147.403V165.5C30.5 170.463 34.5369 174.5 39.5 174.5C46.8525 174.5 61.4228 176.614 69.5847 178.428C69.5823 178.432 69.5799 178.436 69.5776 178.44C69.4024 178.737 69.3459 179.079 69.4614 179.428C69.5691 179.753 69.808 180.029 70.1052 180.265C70.4065 180.504 70.8046 180.733 71.2929 180.955ZM72.5307 176.758C71.7131 177.017 71.0158 177.299 70.4942 177.608C62.4448 175.752 47.1655 173.5 39.5 173.5C35.0891 173.5 31.5 169.911 31.5 165.5V148.122C34.0035 149.011 36.6953 149.5 39.5 149.5C45.6434 149.5 51.2513 147.176 55.5 143.367C59.7487 147.176 65.3566 149.5 71.5 149.5C77.6434 149.5 83.2513 147.176 87.5 143.367C91.7487 147.176 97.3566 149.5 103.5 149.5C106.305 149.5 108.996 149.011 111.5 148.122V165.5C111.5 169.911 107.911 173.5 103.5 173.5C98.4257 173.5 91.1346 173.902 84.6311 174.621C81.3793 174.981 78.3153 175.422 75.819 175.933C74.5711 176.189 73.458 176.464 72.5307 176.758ZM70.4395 178.947C70.481 178.876 70.559 178.786 70.6909 178.681C71.9567 178.98 73.0128 179.266 73.7992 179.525C74.1437 179.639 74.4295 179.745 74.6549 179.843C74.0527 179.939 73.064 179.997 71.6098 180C71.2139 179.814 70.926 179.64 70.7275 179.482C70.5091 179.308 70.4333 179.182 70.4107 179.114C70.3959 179.069 70.3933 179.025 70.4395 178.947ZM71.5 196.21C71.262 195.91 70.9546 195.636 70.6124 195.385C69.8044 194.795 68.6721 194.243 67.3391 193.728C64.6671 192.697 61.0751 191.774 57.3593 191.003C49.9348 189.462 41.8951 188.5 39.5 188.5C26.8181 188.5 16.5 178.182 16.5 165.5V75.5C16.5 71.6341 19.6341 68.5 23.5 68.5C27.3659 68.5 30.5 71.6341 30.5 75.5V125.5C30.5 130.463 34.5369 134.5 39.5 134.5C44.4631 134.5 48.5 130.463 48.5 125.5V35.5C48.5 31.6341 51.6341 28.5 55.5 28.5C59.3659 28.5 62.5 31.6341 62.5 35.5V125.5C62.5 130.463 66.5369 134.5 71.5 134.5C76.4631 134.5 80.5 130.463 80.5 125.5V75.5C80.5 71.6341 83.6341 68.5 87.5 68.5C91.3659 68.5 94.5 71.6341 94.5 75.5V125.5C94.5 130.463 98.5369 134.5 103.5 134.5C108.463 134.5 112.5 130.463 112.5 125.5V55.5C112.5 51.6341 115.634 48.5 119.5 48.5C123.366 48.5 126.5 51.6341 126.5 55.5V165.5C126.5 178.182 116.182 188.5 103.5 188.5C101.105 188.5 93.0652 189.462 85.6407 191.003C81.9249 191.774 78.3329 192.697 75.6609 193.728C74.3279 194.243 73.1956 194.795 72.3876 195.385C72.0454 195.636 71.738 195.91 71.5 196.21Z" stroke="white"/>
</g>
<path d="M111.5 148.122V165.5C111.5 169.911 107.911 173.5 103.5 173.5C98.4257 173.5 91.1346 173.902 84.6311 174.621C81.3793 174.981 78.3153 175.422 75.819 175.933C74.5711 176.189 73.458 176.464 72.5307 176.758C71.7131 177.017 71.0158 177.299 70.4942 177.608C62.4448 175.752 47.1655 173.5 39.5 173.5C35.0891 173.5 31.5 169.911 31.5 165.5V148.122C34.0035 149.011 36.6953 149.5 39.5 149.5C45.6434 149.5 51.2513 147.176 55.5 143.367C59.7487 147.176 65.3566 149.5 71.5 149.5C77.6434 149.5 83.2513 147.176 87.5 143.367C91.7487 147.176 97.3566 149.5 103.5 149.5C106.305 149.5 108.996 149.011 111.5 148.122ZM70.4395 178.947C70.481 178.876 70.559 178.786 70.6909 178.681C71.9567 178.98 73.0128 179.266 73.7992 179.525C74.1437 179.639 74.4294 179.745 74.6549 179.843C74.0527 179.939 73.064 179.997 71.6098 180C71.2139 179.814 70.926 179.64 70.7275 179.482C70.509 179.308 70.4333 179.182 70.4107 179.114C70.3959 179.069 70.3933 179.025 70.4395 178.947Z" stroke="white"/>
<line x1="4.03688" y1="68.9514" x2="54.0369" y2="3.95145" stroke="white" stroke-width="10"/>
<line x1="51.217" y1="8.17231" x2="97.2112" y2="46.8279" stroke="white" stroke-width="10"/>
<line x1="94.9747" y1="51.034" x2="122.975" y2="13.034" stroke="white" stroke-width="10"/>
</svg>
